<?xml version="1.0" encoding="UTF-8" standalone="no"?>
<!DOCTYPE svg PUBLIC "-//W3C//DTD SVG 1.1//EN"
 "http://www.w3.org/Graphics/SVG/1.1/DTD/svg11.dtd">
<!-- Generated by graphviz version 2.38.0 (20140413.2041)
 -->
<!-- Title: workflow Pages: 1 -->
<svg width="1160pt" height="420pt"
 viewBox="0.00 0.00 1160.00 420.00" xmlns="http://www.w3.org/2000/svg" xmlns:xlink="http://www.w3.org/1999/xlink">
<g id="graph0" class="graph" transform="scale(1 1) rotate(0) translate(4 416)">
<title>workflow</title>
<polygon fill="white" stroke="none" points="-4,4 -4,-416 1156,-416 1156,4 -4,4"/>
<!-- place_0e7766b460fd2a39a2fd81d4a3a636b033b52be4 -->
<g id="node1" class="node"><title>place_0e7766b460fd2a39a2fd81d4a3a636b033b52be4</title>
<ellipse fill="lightblue" stroke="#333333" cx="36" cy="-320" rx="36" ry="36"/>
<text text-anchor="middle" x="36" y="-317.8" font-family="Arial" font-size="9.00">draft</text>
</g>
<!-- transition_bc23cc6a5c3c0eb3268ef53423a70efa7c89f3f8 -->
<g id="node10" class="node"><title>transition_bc23cc6a5c3c0eb3268ef53423a70efa7c89f3f8</title>
<polygon fill="none" stroke="#333333" points="180,-356 108,-356 108,-284 180,-284 180,-356"/>
<text text-anchor="middle" x="144" y="-317.8" font-family="Arial" font-size="9.00">to_review</text>
</g>
<!-- place_0e7766b460fd2a39a2fd81d4a3a636b033b52be4&#45;&gt;transition_bc23cc6a5c3c0eb3268ef53423a70efa7c89f3f8 -->
<g id="edge1" class="edge"><title>place_0e7766b460fd2a39a2fd81d4a3a636b033b52be4&#45;&gt;transition_bc23cc6a5c3c0eb3268ef53423a70efa7c89f3f8</title>
<path fill="none" stroke="#333333" d="M72.0021,-320C81.7591,-320 92.4394,-320 102.485,-320"/>
<polygon fill="#333333" stroke="#333333" points="102.672,-321.75 107.672,-320 102.672,-318.25 102.672,-321.75"/>
</g>
<!-- place_61e62b213a1a56f7695845df4fc372a10cb0a73e -->
<g id="node2" class="node"><title>place_61e62b213a1a56f7695845df4fc372a10cb0a73e</title>
<ellipse fill="none" stroke="#333333" cx="252" cy="-320" rx="36" ry="36"/>
<text text-anchor="middle" x="252" y="-317.8" font-family="Arial" font-size="9.00">review</text>
</g>
<!-- transition_653c7173fc18928fb466fdc56e267edeb2a09f56 -->
<g id="node11" class="node"><title>transition_653c7173fc18928fb466fdc56e267edeb2a09f56</title>
<polygon fill="none" stroke="#333333" points="396,-308 324,-308 324,-236 396,-236 396,-308"/>
<text text-anchor="middle" x="360" y="-269.8" font-family="Arial" font-size="9.00">to_approval</text>
</g>
<!-- place_61e62b213a1a56f7695845df4fc372a10cb0a73e&#45;&gt;transition_653c7173fc18928fb466fdc56e267edeb2a09f56 -->
<g id="edge3" class="edge"><title>place_61e62b213a1a56f7695845df4fc372a10cb0a73e&#45;&gt;transition_653c7173fc18928fb466fdc56e267edeb2a09f56</title>
<path fill="none" stroke="#333333" d="M285.091,-305.468C295.755,-300.639 307.763,-295.202 318.951,-290.135"/>
<polygon fill="#333333" stroke="#333333" points="319.857,-291.646 323.69,-287.99 318.413,-288.458 319.857,-291.646"/>
</g>
<!-- place_ab41949825606da179db7c89ddcedcc167b64847 -->
<g id="node3" class="node"><title>place_ab41949825606da179db7c89ddcedcc167b64847</title>
<ellipse fill="none" stroke="#333333" cx="468" cy="-256" rx="36" ry="36"/>
<text text-anchor="middle" x="468" y="-253.8" font-family="Arial" font-size="9.00">editor</text>
</g>
<!-- transition_c76ba0b7a0c555cac0a662d782ce4a62bac0b449 -->
<g id="node12" class="node"><title>transition_c76ba0b7a0c555cac0a662d782ce4a62bac0b449</title>
<polygon fill="none" stroke="#333333" points="612,-284 540,-284 540,-212 612,-212 612,-284"/>
<text text-anchor="middle" x="576" y="-245.8" font-family="Arial" font-size="9.00">editor_ok</text>
</g>
<!-- place_ab41949825606da179db7c89ddcedcc167b64847&#45;&gt;transition_c76ba0b7a0c555cac0a662d782ce4a62bac0b449 -->
<g id="edge5" class="edge"><title>place_ab41949825606da179db7c89ddcedcc167b64847&#45;&gt;transition_c76ba0b7a0c555cac0a662d782ce4a62bac0b449</title>
<path fill="none" stroke="#333333" d="M504.002,-253.358C513.759,-252.622 524.439,-251.816 534.485,-251.058"/>
<polygon fill="#333333" stroke="#333333" points="534.818,-252.788 539.672,-250.666 534.555,-249.298 534.818,-252.788"/>
</g>
<!-- transition_14830a6075a9ed9e183650a97de1e6e8b6eb39bc -->
<g id="node13" class="node"><title>transition_14830a6075a9ed9e183650a97de1e6e8b6eb39bc</title>
<polygon fill="none" stroke="#333333" points="612,-412 540,-412 540,-340 612,-340 612,-412"/>
<text text-anchor="middle" x="576" y="-373.8" font-family="Arial" font-size="9.00">editor_fail</text>
</g>
<!-- place_ab41949825606da179db7c89ddcedcc167b64847&#45;&gt;transition_14830a6075a9ed9e183650a97de1e6e8b6eb39bc -->
<g id="edge8" class="edge"><title>place_ab41949825606da179db7c89ddcedcc167b64847&#45;&gt;transition_14830a6075a9ed9e183650a97de1e6e8b6eb39bc</title>
<path fill="none" stroke="#333333" d="M492.525,-282.632C506.361,-298.295 524.126,-318.407 539.623,-335.951"/>
<polygon fill="#333333" stroke="#333333" points="538.476,-337.295 543.098,-339.884 541.099,-334.978 538.476,-337.295"/>
</g>
<!-- transition_46fd4b07bda39e4f6a0fd62fd64b62b6c54ba4a2 -->
<g id="node14" class="node"><title>transition_46fd4b07bda39e4f6a0fd62fd64b62b6c54ba4a2</title>
<polygon fill="none" stroke="#333333" points="612,-149 540,-149 540,-77 612,-77 612,-149"/>
<text text-anchor="middle" x="576" y="-110.8" font-family="Arial" font-size="9.00">editor_refused</text>
</g>
<!-- place_ab41949825606da179db7c89ddcedcc167b64847&#45;&gt;transition_46fd4b07bda39e4f6a0fd62fd64b62b6c54ba4a2 -->
<g id="edge10" class="edge"><title>place_ab41949825606da179db7c89ddcedcc167b64847&#45;&gt;transition_46fd4b07bda39e4f6a0fd62fd64b62b6c54ba4a2</title>
<path fill="none" stroke="#333333" d="M490.196,-227.406C505.959,-206.14 527.678,-176.839 545.19,-153.215"/>
<polygon fill="#333333" stroke="#333333" points="546.614,-154.233 548.185,-149.174 543.802,-152.149 546.614,-154.233"/>
</g>
<!-- place_b7e3c71e91644d7d324c952b30f4406425469932 -->
<g id="node4" class="node"><title>place_b7e3c71e91644d7d324c952b30f4406425469932</title>
<ellipse fill="none" stroke="#333333" cx="684" cy="-158" rx="36" ry="36"/>
<text text-anchor="middle" x="684" y="-155.8" font-family="Arial" font-size="9.00">corrector</text>
</g>
<!-- transition_7acf78c8becc99e71ec1be0ea49c57a02d043bd2 -->
<g id="node15" class="node"><title>transition_7acf78c8becc99e71ec1be0ea49c57a02d043bd2</title>
<polygon fill="none" stroke="#333333" points="828,-181 756,-181 756,-109 828,-109 828,-181"/>
<text text-anchor="middle" x="792" y="-142.8" font-family="Arial" font-size="9.00">corr_approuved</text>
</g>
<!-- place_b7e3c71e91644d7d324c952b30f4406425469932&#45;&gt;transition_7acf78c8becc99e71ec1be0ea49c57a02d043bd2 -->
<g id="edge12" class="edge"><title>place_b7e3c71e91644d7d324c952b30f4406425469932&#45;&gt;transition_7acf78c8becc99e71ec1be0ea49c57a02d043bd2</title>
<path fill="none" stroke="#333333" d="M720.002,-153.707C729.759,-152.511 740.439,-151.201 750.485,-149.969"/>
<polygon fill="#333333" stroke="#333333" points="750.923,-151.678 755.672,-149.333 750.497,-148.204 750.923,-151.678"/>
</g>
<!-- transition_2b9577f1b859407064dd0f65e9c3ab14c414a22c -->
<g id="node16" class="node"><title>transition_2b9577f1b859407064dd0f65e9c3ab14c414a22c</title>
<polygon fill="none" stroke="#333333" points="828,-72 756,-72 756,-0 828,-0 828,-72"/>
<text text-anchor="middle" x="792" y="-33.8" font-family="Arial" font-size="9.00">corr_failure</text>
</g>
<!-- place_b7e3c71e91644d7d324c952b30f4406425469932&#45;&gt;transition_2b9577f1b859407064dd0f65e9c3ab14c414a22c -->
<g id="edge14" class="edge"><title>place_b7e3c71e91644d7d324c952b30f4406425469932&#45;&gt;transition_2b9577f1b859407064dd0f65e9c3ab14c414a22c</title>
<path fill="none" stroke="#333333" d="M708.262,-131.227C722.2,-115.185 740.195,-94.474 755.841,-76.466"/>
<polygon fill="#333333" stroke="#333333" points="757.39,-77.3519 759.348,-72.4297 754.748,-75.0563 757.39,-77.3519"/>
</g>
<!-- place_b8fc2258cae6be09908c402edc183158c7feeb52 -->
<g id="node5" class="node"><title>place_b8fc2258cae6be09908c402edc183158c7feeb52</title>
<ellipse fill="none" stroke="#333333" cx="900" cy="-145" rx="36" ry="36"/>
<text text-anchor="middle" x="900" y="-142.8" font-family="Arial" font-size="9.00">correction_ok</text>
</g>
<!-- transition_00d1e9396d5d47377f577abd6ba83173ba9a3eba -->
<g id="node19" class="node"><title>transition_00d1e9396d5d47377f577abd6ba83173ba9a3eba</title>
<polygon fill="none" stroke="#333333" points="1044,-226 972,-226 972,-154 1044,-154 1044,-226"/>
<text text-anchor="middle" x="1008" y="-187.8" font-family="Arial" font-size="9.00">to_be_published</text>
</g>
<!-- place_b8fc2258cae6be09908c402edc183158c7feeb52&#45;&gt;transition_00d1e9396d5d47377f577abd6ba83173ba9a3eba -->
<g id="edge21" class="edge"><title>place_b8fc2258cae6be09908c402edc183158c7feeb52&#45;&gt;transition_00d1e9396d5d47377f577abd6ba83173ba9a3eba</title>
<path fill="none" stroke="#333333" d="M933.379,-158.746C944.034,-163.269 956.006,-168.352 967.15,-173.083"/>
<polygon fill="#333333" stroke="#333333" points="966.583,-174.743 971.869,-175.086 967.951,-171.521 966.583,-174.743"/>
</g>
<!-- place_b497a0aad7d4c7179b4fa30ccb0b930e674048dd -->
<g id="node6" class="node"><title>place_b497a0aad7d4c7179b4fa30ccb0b930e674048dd</title>
<ellipse fill="none" stroke="#333333" cx="684" cy="-248" rx="36" ry="36"/>
<text text-anchor="middle" x="684" y="-245.8" font-family="Arial" font-size="9.00">publisher</text>
</g>
<!-- transition_c551d0228e55876baee13f56d90a3c2f9b7aaee0 -->
<g id="node17" class="node"><title>transition_c551d0228e55876baee13f56d90a3c2f9b7aaee0</title>
<polygon fill="none" stroke="#333333" points="828,-271 756,-271 756,-199 828,-199 828,-271"/>
<text text-anchor="middle" x="792" y="-232.8" font-family="Arial" font-size="9.00">pub_approuved</text>
</g>
<!-- place_b497a0aad7d4c7179b4fa30ccb0b930e674048dd&#45;&gt;transition_c551d0228e55876baee13f56d90a3c2f9b7aaee0 -->
<g id="edge16" class="edge"><title>place_b497a0aad7d4c7179b4fa30ccb0b930e674048dd&#45;&gt;transition_c551d0228e55876baee13f56d90a3c2f9b7aaee0</title>
<path fill="none" stroke="#333333" d="M720.002,-243.707C729.759,-242.511 740.439,-241.201 750.485,-239.969"/>
<polygon fill="#333333" stroke="#333333" points="750.923,-241.678 755.672,-239.333 750.497,-238.204 750.923,-241.678"/>
</g>
<!-- transition_4e8e6c4bde2fdd8b8bf5b9362c7efe220aeaaf8f -->
<g id="node18" class="node"><title>transition_4e8e6c4bde2fdd8b8bf5b9362c7efe220aeaaf8f</title>
<polygon fill="none" stroke="#333333" points="828,-361 756,-361 756,-289 828,-289 828,-361"/>
<text text-anchor="middle" x="792" y="-322.8" font-family="Arial" font-size="9.00">pub_failure</text>
</g>
<!-- place_b497a0aad7d4c7179b4fa30ccb0b930e674048dd&#45;&gt;transition_4e8e6c4bde2fdd8b8bf5b9362c7efe220aeaaf8f -->
<g id="edge18" class="edge"><title>place_b497a0aad7d4c7179b4fa30ccb0b930e674048dd&#45;&gt;transition_4e8e6c4bde2fdd8b8bf5b9362c7efe220aeaaf8f</title>
<path fill="none" stroke="#333333" d="M713.685,-268.837C725.363,-277.321 739.052,-287.265 751.64,-296.408"/>
<polygon fill="#333333" stroke="#333333" points="750.788,-297.953 755.862,-299.475 752.845,-295.121 750.788,-297.953"/>
</g>
<!-- place_31482174a31687ddbf799052ac05d6d6c9d11903 -->
<g id="node7" class="node"><title>place_31482174a31687ddbf799052ac05d6d6c9d11903</title>
<ellipse fill="none" stroke="#333333" cx="900" cy="-235" rx="36" ry="36"/>
<text text-anchor="middle" x="900" y="-232.8" font-family="Arial" font-size="9.00">publisher_ok</text>
</g>
<!-- place_31482174a31687ddbf799052ac05d6d6c9d11903&#45;&gt;transition_00d1e9396d5d47377f577abd6ba83173ba9a3eba -->
<g id="edge20" class="edge"><title>place_31482174a31687ddbf799052ac05d6d6c9d11903&#45;&gt;transition_00d1e9396d5d47377f577abd6ba83173ba9a3eba</title>
<path fill="none" stroke="#333333" d="M933.379,-221.254C944.034,-216.731 956.006,-211.648 967.15,-206.917"/>
<polygon fill="#333333" stroke="#333333" points="967.951,-208.479 971.869,-204.914 966.583,-205.257 967.951,-208.479"/>
</g>
<!-- place_a503bc1da23a6a8fafc646f69e65cc7d22fd4b53 -->
<g id="node8" class="node"><title>place_a503bc1da23a6a8fafc646f69e65cc7d22fd4b53</title>
<ellipse fill="none" stroke="#333333" cx="684" cy="-68" rx="36" ry="36"/>
<text text-anchor="middle" x="684" y="-65.8" font-family="Arial" font-size="9.00">refused</text>
</g>
<!-- place_c2807535f28e44fe6c7375dcf90518115529a8fa -->
<g id="node9" class="node"><title>place_c2807535f28e44fe6c7375dcf90518115529a8fa</title>
<ellipse fill="none" stroke="#333333" cx="1116" cy="-190" rx="36" ry="36"/>
<text text-anchor="middle" x="1116" y="-187.8" font-family="Arial" font-size="9.00">published</text>
</g>
<!-- transition_bc23cc6a5c3c0eb3268ef53423a70efa7c89f3f8&#45;&gt;place_61e62b213a1a56f7695845df4fc372a10cb0a73e -->
<g id="edge2" class="edge"><title>transition_bc23cc6a5c3c0eb3268ef53423a70efa7c89f3f8&#45;&gt;place_61e62b213a1a56f7695845df4fc372a10cb0a73e</title>
<path fill="none" stroke="#333333" d="M180.002,-320C189.759,-320 200.439,-320 210.485,-320"/>
<polygon fill="#333333" stroke="#333333" points="210.672,-321.75 215.672,-320 210.672,-318.25 210.672,-321.75"/>
</g>
<!-- transition_653c7173fc18928fb466fdc56e267edeb2a09f56&#45;&gt;place_ab41949825606da179db7c89ddcedcc167b64847 -->
<g id="edge4" class="edge"><title>transition_653c7173fc18928fb466fdc56e267edeb2a09f56&#45;&gt;place_ab41949825606da179db7c89ddcedcc167b64847</title>
<path fill="none" stroke="#333333" d="M396.002,-266.717C405.952,-265.215 416.863,-263.568 427.081,-262.025"/>
<polygon fill="#333333" stroke="#333333" points="427.352,-263.755 432.035,-261.278 426.829,-260.294 427.352,-263.755"/>
</g>
<!-- transition_c76ba0b7a0c555cac0a662d782ce4a62bac0b449&#45;&gt;place_b7e3c71e91644d7d324c952b30f4406425469932 -->
<g id="edge6" class="edge"><title>transition_c76ba0b7a0c555cac0a662d782ce4a62bac0b449&#45;&gt;place_b7e3c71e91644d7d324c952b30f4406425469932</title>
<path fill="none" stroke="#333333" d="M612.002,-218.281C625.009,-207.238 639.657,-194.801 652.255,-184.105"/>
<polygon fill="#333333" stroke="#333333" points="653.416,-185.415 656.094,-180.844 651.15,-182.747 653.416,-185.415"/>
</g>
<!-- transition_c76ba0b7a0c555cac0a662d782ce4a62bac0b449&#45;&gt;place_b497a0aad7d4c7179b4fa30ccb0b930e674048dd -->
<g id="edge7" class="edge"><title>transition_c76ba0b7a0c555cac0a662d782ce4a62bac0b449&#45;&gt;place_b497a0aad7d4c7179b4fa30ccb0b930e674048dd</title>
<path fill="none" stroke="#333333" d="M612.002,-248C621.759,-248 632.439,-248 642.485,-248"/>
<polygon fill="#333333" stroke="#333333" points="642.672,-249.75 647.672,-248 642.672,-246.25 642.672,-249.75"/>
</g>
<!-- transition_14830a6075a9ed9e183650a97de1e6e8b6eb39bc&#45;&gt;place_61e62b213a1a56f7695845df4fc372a10cb0a73e -->
<g id="edge9" class="edge"><title>transition_14830a6075a9ed9e183650a97de1e6e8b6eb39bc&#45;&gt;place_61e62b213a1a56f7695845df4fc372a10cb0a73e</title>
<path fill="none" stroke="#333333" d="M539.891,-369.894C479.547,-359.399 356.528,-338.005 292.981,-326.953"/>
<polygon fill="#333333" stroke="#333333" points="292.992,-325.179 287.766,-326.046 292.392,-328.627 292.992,-325.179"/>
</g>
<!-- transition_46fd4b07bda39e4f6a0fd62fd64b62b6c54ba4a2&#45;&gt;place_a503bc1da23a6a8fafc646f69e65cc7d22fd4b53 -->
<g id="edge11" class="edge"><title>transition_46fd4b07bda39e4f6a0fd62fd64b62b6c54ba4a2&#45;&gt;place_a503bc1da23a6a8fafc646f69e65cc7d22fd4b53</title>
<path fill="none" stroke="#333333" d="M612.002,-98.1406C622.872,-93.5261 634.888,-88.4251 645.895,-83.752"/>
<polygon fill="#333333" stroke="#333333" points="646.626,-85.3429 650.545,-81.7781 645.259,-82.1211 646.626,-85.3429"/>
</g>
<!-- transition_7acf78c8becc99e71ec1be0ea49c57a02d043bd2&#45;&gt;place_b8fc2258cae6be09908c402edc183158c7feeb52 -->
<g id="edge13" class="edge"><title>transition_7acf78c8becc99e71ec1be0ea49c57a02d043bd2&#45;&gt;place_b8fc2258cae6be09908c402edc183158c7feeb52</title>
<path fill="none" stroke="#333333" d="M828.002,-145C837.759,-145 848.439,-145 858.485,-145"/>
<polygon fill="#333333" stroke="#333333" points="858.672,-146.75 863.672,-145 858.672,-143.25 858.672,-146.75"/>
</g>
<!-- transition_2b9577f1b859407064dd0f65e9c3ab14c414a22c&#45;&gt;place_ab41949825606da179db7c89ddcedcc167b64847 -->
<g id="edge15" class="edge"><title>transition_2b9577f1b859407064dd0f65e9c3ab14c414a22c&#45;&gt;place_ab41949825606da179db7c89ddcedcc167b64847</title>
<path fill="none" stroke="#333333" d="M755.781,-28.2507C744.42,-26.1008 731.731,-24.0651 720,-23 637.876,-15.5436 597.319,-8.71655 540,-68 500.617,-108.733 482.628,-173.442 474.739,-215.316"/>
<polygon fill="#333333" stroke="#333333" points="473.005,-215.073 473.826,-220.306 476.448,-215.703 473.005,-215.073"/>
</g>
<!-- transition_c551d0228e55876baee13f56d90a3c2f9b7aaee0&#45;&gt;place_31482174a31687ddbf799052ac05d6d6c9d11903 -->
<g id="edge17" class="edge"><title>transition_c551d0228e55876baee13f56d90a3c2f9b7aaee0&#45;&gt;place_31482174a31687ddbf799052ac05d6d6c9d11903</title>
<path fill="none" stroke="#333333" d="M828.002,-235C837.759,-235 848.439,-235 858.485,-235"/>
<polygon fill="#333333" stroke="#333333" points="858.672,-236.75 863.672,-235 858.672,-233.25 858.672,-236.75"/>
</g>
<!-- transition_4e8e6c4bde2fdd8b8bf5b9362c7efe220aeaaf8f&#45;&gt;place_ab41949825606da179db7c89ddcedcc167b64847 -->
<g id="edge19" class="edge"><title>transition_4e8e6c4bde2fdd8b8bf5b9362c7efe220aeaaf8f&#45;&gt;place_ab41949825606da179db7c89ddcedcc167b64847</title>
<path fill="none" stroke="#333333" d="M755.66,-324.394C706.301,-322.68 614.408,-316.311 540,-293 527.588,-289.111 514.763,-283.122 503.486,-277.087"/>
<polygon fill="#333333" stroke="#333333" points="504.309,-275.542 499.081,-274.686 502.634,-278.615 504.309,-275.542"/>
</g>
<!-- transition_00d1e9396d5d47377f577abd6ba83173ba9a3eba&#45;&gt;place_c2807535f28e44fe6c7375dcf90518115529a8fa -->
<g id="edge22" class="edge"><title>transition_00d1e9396d5d47377f577abd6ba83173ba9a3eba&#45;&gt;place_c2807535f28e44fe6c7375dcf90518115529a8fa</title>
<path fill="none" stroke="#333333" d="M1044,-190C1053.76,-190 1064.44,-190 1074.49,-190"/>
<polygon fill="#333333" stroke="#333333" points="1074.67,-191.75 1079.67,-190 1074.67,-188.25 1074.67,-191.75"/>
</g>
</g>
</svg>
